<svg xmlns="http://www.w3.org/2000/svg" viewBox="0 0 400 300" width="406" height="306" class="illustration styles_illustrationTablet__1DWOa"><g id="_551_calculator_outline" data-name="#551_calculator_outline"><rect x="133.35" y="72.5" width="133.29" height="165.98" rx="9.17" fill="#093f68"></rect><path d="M257.48,239.48h-115a10.19,10.19,0,0,1-10.17-10.17V81.67A10.19,10.19,0,0,1,142.52,71.5h115a10.19,10.19,0,0,1,10.17,10.17V229.31A10.19,10.19,0,0,1,257.48,239.48Zm-115-166a8.19,8.19,0,0,0-8.17,8.17V229.31a8.18,8.18,0,0,0,8.17,8.17h115a8.18,8.18,0,0,0,8.17-8.17V81.67a8.19,8.19,0,0,0-8.17-8.17Z" fill="#093f68"></path><rect x="133.35" y="61.52" width="133.29" height="165.98" rx="9.17" fill="#68e1fd"></rect><path d="M257.48,228.5h-115a10.19,10.19,0,0,1-10.17-10.17V70.69a10.19,10.19,0,0,1,10.17-10.17h115a10.19,10.19,0,0,1,10.17,10.17V218.33A10.19,10.19,0,0,1,257.48,228.5Zm-115-166a8.18,8.18,0,0,0-8.17,8.17V218.33a8.19,8.19,0,0,0,8.17,8.17h115a8.19,8.19,0,0,0,8.17-8.17V70.69a8.18,8.18,0,0,0-8.17-8.17Z" fill="#093f68"></path><rect x="143.32" y="105.93" width="23.24" height="23.24" rx="2.01" fill="#ffbc0e"></rect><path d="M164.55,130.17H145.33a3,3,0,0,1-3-3V107.94a3,3,0,0,1,3-3h19.22a3,3,0,0,1,3,3v19.22A3,3,0,0,1,164.55,130.17Zm-19.22-23.24a1,1,0,0,0-1,1v19.22a1,1,0,0,0,1,1h19.22a1,1,0,0,0,1-1V107.94a1,1,0,0,0-1-1Z" fill="#093f68"></path><path d="M156.17,113.32h-4.74v-1.88h7v1.79l-3.84,7.82h-2.37Z" fill="#093f68"></path><rect x="173.25" y="105.93" width="23.24" height="23.24" rx="2.01" fill="#ffbc0e"></rect><path d="M194.48,130.17H175.25a3,3,0,0,1-3-3V107.94a3,3,0,0,1,3-3h19.23a3,3,0,0,1,3,3v19.22A3,3,0,0,1,194.48,130.17Zm-19.23-23.24a1,1,0,0,0-1,1v19.22a1,1,0,0,0,1,1h19.23a1,1,0,0,0,1-1V107.94a1,1,0,0,0-1-1Z" fill="#093f68"></path><path d="M181.65,115.23a2.48,2.48,0,0,1,.25-1.16,2.42,2.42,0,0,1,.69-.83,3.18,3.18,0,0,1,1-.5,5,5,0,0,1,1.25-.16,4.89,4.89,0,0,1,1.24.16,3,3,0,0,1,1,.5,2.42,2.42,0,0,1,.69.83,2.37,2.37,0,0,1,.26,1.16,2.11,2.11,0,0,1-.43,1.34,2.29,2.29,0,0,1-1.2.79v0a2.34,2.34,0,0,1,1.33.83,2.37,2.37,0,0,1,.46,1.5,2.64,2.64,0,0,1-.27,1.22,2.77,2.77,0,0,1-.75.88,3.39,3.39,0,0,1-1.08.52,4.87,4.87,0,0,1-2.55,0,3.39,3.39,0,0,1-1.08-.52,2.62,2.62,0,0,1-.74-.88,2.53,2.53,0,0,1-.28-1.22,2.24,2.24,0,0,1,1.79-2.33v0a2.29,2.29,0,0,1-1.2-.79A2.11,2.11,0,0,1,181.65,115.23Zm1.87,4.2a1.17,1.17,0,0,0,.37.86,1.53,1.53,0,0,0,2,0,1.14,1.14,0,0,0,.37-.86,1.12,1.12,0,0,0-.37-.86,1.5,1.5,0,0,0-2,0A1.16,1.16,0,0,0,183.52,119.43Zm.17-3.92a1,1,0,0,0,.32.76,1.33,1.33,0,0,0,1.71,0,1,1,0,0,0,.33-.76,1,1,0,0,0-.33-.74,1.3,1.3,0,0,0-1.71,0A1,1,0,0,0,183.69,115.51Z" fill="#093f68"></path><rect x="203.17" y="105.93" width="23.24" height="23.24" rx="2.01" fill="#ffbc0e"></rect><path d="M224.41,130.17H205.18a3,3,0,0,1-3-3V107.94a3,3,0,0,1,3-3h19.23a3,3,0,0,1,3,3v19.22A3,3,0,0,1,224.41,130.17Zm-19.23-23.24a1,1,0,0,0-1,1v19.22a1,1,0,0,0,1,1h19.23a1,1,0,0,0,1-1V107.94a1,1,0,0,0-1-1Z" fill="#093f68"></path><path d="M214.89,119l-.33.07a1.88,1.88,0,0,1-.34,0,3.07,3.07,0,0,1-1.23-.24,2.79,2.79,0,0,1-1-.66,3,3,0,0,1-.61-1,3.39,3.39,0,0,1-.22-1.23,3.11,3.11,0,0,1,.28-1.35,3.14,3.14,0,0,1,.76-1,3.46,3.46,0,0,1,1.13-.67,4.26,4.26,0,0,1,2.82,0,3.4,3.4,0,0,1,1.14.67,3.15,3.15,0,0,1,1,2.39,4.52,4.52,0,0,1-.1.94,4.8,4.8,0,0,1-.25.81,5,5,0,0,1-.37.73l-.44.71-2.1,3.28h-2.48Zm-1.64-3a1.46,1.46,0,0,0,.42,1.08,1.51,1.51,0,0,0,1.12.43,1.49,1.49,0,0,0,1.12-.43,1.43,1.43,0,0,0,.43-1.08,1.46,1.46,0,0,0-.43-1.08,1.52,1.52,0,0,0-1.12-.42,1.54,1.54,0,0,0-1.12.42A1.49,1.49,0,0,0,213.25,116Z" fill="#093f68"></path><rect x="233.1" y="105.93" width="23.24" height="23.24" rx="2.01" fill="#ffbc0e"></rect><path d="M254.33,130.17H235.11a3,3,0,0,1-3-3V107.94a3,3,0,0,1,3-3h19.22a3,3,0,0,1,3,3v19.22A3,3,0,0,1,254.33,130.17Zm-19.22-23.24a1,1,0,0,0-1,1v19.22a1,1,0,0,0,1,1h19.22a1,1,0,0,0,1-1V107.94a1,1,0,0,0-1-1Z" fill="#093f68"></path><rect x="143.32" y="134.26" width="23.24" height="23.24" rx="2.01" fill="#ffbc0e"></rect><path d="M164.55,158.5H145.33a3,3,0,0,1-3-3V136.27a3,3,0,0,1,3-3h19.22a3,3,0,0,1,3,3V155.5A3,3,0,0,1,164.55,158.5Zm-19.22-23.24a1,1,0,0,0-1,1V155.5a1,1,0,0,0,1,1h19.22a1,1,0,0,0,1-1V136.27a1,1,0,0,0-1-1Z" fill="#093f68"></path><path d="M155.44,148.76h-4.19v-1.71l3.92-6h2.23v6h1.23v1.71H157.4v1.93h-2Zm0-5h0l-2.13,3.31h2.16Z" fill="#093f68"></path><rect x="173.25" y="134.26" width="23.24" height="23.24" rx="2.01" fill="#ffbc0e"></rect><path d="M194.48,158.5H175.25a3,3,0,0,1-3-3V136.27a3,3,0,0,1,3-3h19.23a3,3,0,0,1,3,3V155.5A3,3,0,0,1,194.48,158.5Zm-19.23-23.24a1,1,0,0,0-1,1V155.5a1,1,0,0,0,1,1h19.23a1,1,0,0,0,1-1V136.27a1,1,0,0,0-1-1Z" fill="#093f68"></path><path d="M188,142.79h-3.81l0,1.48a2.76,2.76,0,0,1,.86-.11,3.88,3.88,0,0,1,1.34.22,2.78,2.78,0,0,1,1,.63,3,3,0,0,1,.69,1,3.85,3.85,0,0,1,0,2.78,3.09,3.09,0,0,1-.77,1.08,3.4,3.4,0,0,1-1.16.67,4.5,4.5,0,0,1-1.45.23,3.49,3.49,0,0,1-2.09-.61,3.15,3.15,0,0,1-1.16-1.85l2.13-.49a1.38,1.38,0,0,0,.44.84,1.27,1.27,0,0,0,.88.32,1.39,1.39,0,0,0,1-.41,1.43,1.43,0,0,0,.38-1,1.41,1.41,0,0,0-.19-.78,1.44,1.44,0,0,0-.52-.49,2.07,2.07,0,0,0-.71-.25,4.22,4.22,0,0,0-.79-.07,5,5,0,0,0-1,.1,7.39,7.39,0,0,0-1,.25l.11-5.3H188Z" fill="#093f68"></path><rect x="203.17" y="134.26" width="23.24" height="23.24" rx="2.01" fill="#ffbc0e"></rect><path d="M224.41,158.5H205.18a3,3,0,0,1-3-3V136.27a3,3,0,0,1,3-3h19.23a3,3,0,0,1,3,3V155.5A3,3,0,0,1,224.41,158.5Zm-19.23-23.24a1,1,0,0,0-1,1V155.5a1,1,0,0,0,1,1h19.23a1,1,0,0,0,1-1V136.27a1,1,0,0,0-1-1Z" fill="#093f68"></path><path d="M214.7,144.43l.32-.07.34,0a3.08,3.08,0,0,1,1.24.24,2.94,2.94,0,0,1,1,.66,3.27,3.27,0,0,1,.61,1,3.62,3.62,0,0,1,.22,1.23,3.15,3.15,0,0,1-1,2.39,3.4,3.4,0,0,1-1.14.67,4.26,4.26,0,0,1-2.82,0,3.46,3.46,0,0,1-1.13-.67,3.29,3.29,0,0,1-.76-1,3.11,3.11,0,0,1-.28-1.35,3.93,3.93,0,0,1,.1-.94,4,4,0,0,1,.25-.81,5.49,5.49,0,0,1,.36-.73l.44-.71,2.11-3.28H217Zm1.64,3a1.45,1.45,0,0,0-.43-1.08,1.53,1.53,0,0,0-1.12-.43,1.55,1.55,0,0,0-1.12.43,1.48,1.48,0,0,0-.42,1.08,1.49,1.49,0,0,0,.42,1.08,1.55,1.55,0,0,0,1.12.43,1.53,1.53,0,0,0,1.12-.43A1.46,1.46,0,0,0,216.34,147.39Z" fill="#093f68"></path><rect x="233.1" y="134.26" width="23.24" height="23.24" rx="2.01" fill="#ffbc0e"></rect><path d="M254.33,158.5H235.11a3,3,0,0,1-3-3V136.27a3,3,0,0,1,3-3h19.22a3,3,0,0,1,3,3V155.5A3,3,0,0,1,254.33,158.5Zm-19.22-23.24a1,1,0,0,0-1,1V155.5a1,1,0,0,0,1,1h19.22a1,1,0,0,0,1-1V136.27a1,1,0,0,0-1-1Z" fill="#093f68"></path><rect x="143.32" y="162.6" width="23.24" height="23.24" rx="2.01" fill="#ffbc0e"></rect><path d="M164.55,186.84H145.33a3,3,0,0,1-3-3V164.61a3,3,0,0,1,3-3h19.22a3,3,0,0,1,3,3v19.22A3,3,0,0,1,164.55,186.84ZM145.33,163.6a1,1,0,0,0-1,1v19.22a1,1,0,0,0,1,1h19.22a1,1,0,0,0,1-1V164.61a1,1,0,0,0-1-1Z" fill="#093f68"></path><path d="M155.5,171.69l-1.92,1.7-1.16-1.33,3.14-2.65h1.9V179h-2Z" fill="#093f68"></path><rect x="173.25" y="162.6" width="23.24" height="23.24" rx="2.01" fill="#ffbc0e"></rect><path d="M194.48,186.84H175.25a3,3,0,0,1-3-3V164.61a3,3,0,0,1,3-3h19.23a3,3,0,0,1,3,3v19.22A3,3,0,0,1,194.48,186.84ZM175.25,163.6a1,1,0,0,0-1,1v19.22a1,1,0,0,0,1,1h19.23a1,1,0,0,0,1-1V164.61a1,1,0,0,0-1-1Z" fill="#093f68"></path><path d="M181.51,177l3.74-3.36a6.29,6.29,0,0,0,.57-.58,1.12,1.12,0,0,0,.28-.76.94.94,0,0,0-.35-.77,1.33,1.33,0,0,0-.83-.27,1.12,1.12,0,0,0-.89.35,1.43,1.43,0,0,0-.36.87l-2-.15A3.23,3.23,0,0,1,182,171a2.69,2.69,0,0,1,.72-.91,2.93,2.93,0,0,1,1.05-.55,4.23,4.23,0,0,1,1.31-.19,3.76,3.76,0,0,1,1.22.19,2.79,2.79,0,0,1,1,.54,2.51,2.51,0,0,1,.66.9,3.08,3.08,0,0,1,.24,1.26,3.58,3.58,0,0,1-.1.84,2.91,2.91,0,0,1-.26.68,3.78,3.78,0,0,1-.4.56,6,6,0,0,1-.51.5L184,177.31h4.26v1.79h-6.71Z" fill="#093f68"></path><rect x="203.17" y="162.6" width="23.24" height="23.24" rx="2.01" fill="#ffbc0e"></rect><path d="M224.41,186.84H205.18a3,3,0,0,1-3-3V164.61a3,3,0,0,1,3-3h19.23a3,3,0,0,1,3,3v19.22A3,3,0,0,1,224.41,186.84ZM205.18,163.6a1,1,0,0,0-1,1v19.22a1,1,0,0,0,1,1h19.23a1,1,0,0,0,1-1V164.61a1,1,0,0,0-1-1Z" fill="#093f68"></path><path d="M213.84,173.2h.66a3.43,3.43,0,0,0,.56,0,1.57,1.57,0,0,0,.49-.16.86.86,0,0,0,.36-.32,1,1,0,0,0,.14-.55.9.9,0,0,0-.35-.72,1.29,1.29,0,0,0-.85-.29,1.2,1.2,0,0,0-.78.26,1.17,1.17,0,0,0-.41.64l-2.24-.46a3.1,3.1,0,0,1,.49-1.07,2.87,2.87,0,0,1,.77-.71,3.55,3.55,0,0,1,1-.4,4.85,4.85,0,0,1,1.16-.13,4.51,4.51,0,0,1,1.23.16,2.85,2.85,0,0,1,1,.49,2.37,2.37,0,0,1,1,2,2.26,2.26,0,0,1-.42,1.38,1.91,1.91,0,0,1-1.22.73v0a1.76,1.76,0,0,1,.77.26,1.92,1.92,0,0,1,.56.5,2,2,0,0,1,.35.68,2.36,2.36,0,0,1,.13.8,2.78,2.78,0,0,1-.28,1.26,2.74,2.74,0,0,1-.75.9,3.23,3.23,0,0,1-1.1.54,4.8,4.8,0,0,1-1.33.17,4,4,0,0,1-2.22-.59,2.92,2.92,0,0,1-1.23-1.89l2.14-.5a1.52,1.52,0,0,0,.44.81,1.45,1.45,0,0,0,1,.3,1.15,1.15,0,0,0,1.3-1.23,1,1,0,0,0-.17-.63,1.07,1.07,0,0,0-.44-.34A2.19,2.19,0,0,0,215,175l-.68,0h-.47Z" fill="#093f68"></path><rect x="233.1" y="162.6" width="23.24" height="23.24" rx="2.01" fill="#ffbc0e"></rect><path d="M254.33,186.84H235.11a3,3,0,0,1-3-3V164.61a3,3,0,0,1,3-3h19.22a3,3,0,0,1,3,3v19.22A3,3,0,0,1,254.33,186.84ZM235.11,163.6a1,1,0,0,0-1,1v19.22a1,1,0,0,0,1,1h19.22a1,1,0,0,0,1-1V164.61a1,1,0,0,0-1-1Z" fill="#093f68"></path><rect x="143.32" y="190.93" width="23.24" height="23.24" rx="2.01" fill="#ffbc0e"></rect><path d="M164.55,215.17H145.33a3,3,0,0,1-3-3V192.94a3,3,0,0,1,3-3h19.22a3,3,0,0,1,3,3v19.23A3,3,0,0,1,164.55,215.17Zm-19.22-23.24a1,1,0,0,0-1,1v19.23a1,1,0,0,0,1,1h19.22a1,1,0,0,0,1-1V192.94a1,1,0,0,0-1-1Z" fill="#093f68"></path><path d="M151.37,201.25a9.47,9.47,0,0,1,.16-1.74,5.22,5.22,0,0,1,.55-1.6,3.25,3.25,0,0,1,1.1-1.17,3.67,3.67,0,0,1,3.52,0,3.33,3.33,0,0,1,1.1,1.17,5.22,5.22,0,0,1,.55,1.6,9.54,9.54,0,0,1,0,3.48,5.13,5.13,0,0,1-.55,1.6,3.33,3.33,0,0,1-1.1,1.17,3.6,3.6,0,0,1-3.52,0,3.25,3.25,0,0,1-1.1-1.17,5.13,5.13,0,0,1-.55-1.6A9.47,9.47,0,0,1,151.37,201.25Zm2,0c0,.26,0,.56,0,.91a4.36,4.36,0,0,0,.18,1,2.17,2.17,0,0,0,.46.83,1.25,1.25,0,0,0,1.71,0,2.19,2.19,0,0,0,.47-.83,5,5,0,0,0,.18-1c0-.35,0-.65,0-.91s0-.55,0-.91a5,5,0,0,0-.18-1,2.08,2.08,0,0,0-.47-.82,1.25,1.25,0,0,0-1.71,0,2.06,2.06,0,0,0-.46.82,4.36,4.36,0,0,0-.18,1C153.42,200.7,153.41,201,153.41,201.25Z" fill="#093f68"></path><rect x="173.25" y="190.93" width="23.24" height="23.24" rx="2.01" fill="#ffbc0e"></rect><path d="M194.48,215.17H175.25a3,3,0,0,1-3-3V192.94a3,3,0,0,1,3-3h19.23a3,3,0,0,1,3,3v19.23A3,3,0,0,1,194.48,215.17Zm-19.23-23.24a1,1,0,0,0-1,1v19.23a1,1,0,0,0,1,1h19.23a1,1,0,0,0,1-1V192.94a1,1,0,0,0-1-1Z" fill="#093f68"></path><rect x="203.17" y="190.93" width="23.24" height="23.24" rx="2.01" fill="#ffbc0e"></rect><path d="M224.41,215.17H205.18a3,3,0,0,1-3-3V192.94a3,3,0,0,1,3-3h19.23a3,3,0,0,1,3,3v19.23A3,3,0,0,1,224.41,215.17Zm-19.23-23.24a1,1,0,0,0-1,1v19.23a1,1,0,0,0,1,1h19.23a1,1,0,0,0,1-1V192.94a1,1,0,0,0-1-1Z" fill="#093f68"></path><rect x="233.1" y="190.93" width="23.24" height="23.24" rx="2.01" fill="#ffbc0e"></rect><path d="M254.33,215.17H235.11a3,3,0,0,1-3-3V192.94a3,3,0,0,1,3-3h19.22a3,3,0,0,1,3,3v19.23A3,3,0,0,1,254.33,215.17Zm-19.22-23.24a1,1,0,0,0-1,1v19.23a1,1,0,0,0,1,1h19.22a1,1,0,0,0,1-1V192.94a1,1,0,0,0-1-1Z" fill="#093f68"></path><circle cx="184.87" cy="202.5" r="2.23" fill="#093f68"></circle><path d="M240.48,122.87a1,1,0,0,1-.72-1.7l8.49-8.65a1,1,0,0,1,1.42,0,1,1,0,0,1,0,1.41l-8.49,8.65A1,1,0,0,1,240.48,122.87Z" fill="#093f68"></path><path d="M240.48,151.21a1,1,0,0,1-.71-.29,1,1,0,0,1,0-1.41l8.49-8.65a1,1,0,1,1,1.43,1.4l-8.49,8.65A1,1,0,0,1,240.48,151.21Z" fill="#093f68"></path><path d="M249,151.21a1,1,0,0,1-.72-.3l-8.49-8.65a1,1,0,1,1,1.43-1.4l8.49,8.65a1,1,0,0,1,0,1.41A1,1,0,0,1,249,151.21Z" fill="#093f68"></path><path d="M249.07,175.22h-8.7a1,1,0,0,1,0-2h8.7a1,1,0,0,1,0,2Z" fill="#093f68"></path><path d="M249.07,200.66h-8.7a1,1,0,0,1,0-2h8.7a1,1,0,0,1,0,2Z" fill="#093f68"></path><path d="M249.07,206.44h-8.7a1,1,0,0,1,0-2h8.7a1,1,0,0,1,0,2Z" fill="#093f68"></path><path d="M219.14,203.55h-8.7a1,1,0,0,1,0-2h8.7a1,1,0,0,1,0,2Z" fill="#093f68"></path><path d="M214.79,207.9a1,1,0,0,1-1-1v-8.7a1,1,0,0,1,2,0v8.7A1,1,0,0,1,214.79,207.9Z" fill="#093f68"></path><rect x="143.32" y="71.26" width="113.02" height="26.02" fill="#f56132"></rect><path d="M256.34,98.28h-113a1,1,0,0,1-1-1v-26a1,1,0,0,1,1-1h113a1,1,0,0,1,1,1v26A1,1,0,0,1,256.34,98.28Zm-112-2h111v-24h-111Z" fill="#093f68"></path><path d="M244.4,93.33h-4.13A3.31,3.31,0,0,1,237,90V78.09a3.32,3.32,0,0,1,3.31-3.32h4.13a3.32,3.32,0,0,1,3.31,3.32V90A3.32,3.32,0,0,1,244.4,93.33Zm-4.13-16.56A1.31,1.31,0,0,0,239,78.09V90a1.31,1.31,0,0,0,1.31,1.31h4.13A1.31,1.31,0,0,0,245.71,90V78.09a1.32,1.32,0,0,0-1.31-1.32Z" fill="#fff"></path><path d="M246.26,92.38a1,1,0,0,1-.85-.47l-8.3-13.29a1,1,0,1,1,1.69-1.06l8.31,13.29a1,1,0,0,1-.32,1.38A1,1,0,0,1,246.26,92.38Z" fill="#fff"></path></g></svg>